<svg xmlns="http://www.w3.org/2000/svg" xmlns:xlink="http://www.w3.org/1999/xlink" viewBox="0 0 1084 709" style="left: 0px; top: 0px; width: 100%; height: 100%; display: block; min-width: 1064px; min-height: 689px;"><g><g></g><g><g style="visibility: visible;"><rect x="362.5" y="90" width="180" height="30" fill="#ffffff" stroke="#2f5597" stroke-width="2" pointer-events="all"></rect></g><g style=""><g fill="#000000" font-family="Arial,Helvetica" font-size="12px"><text x="399.5" y="108">Login</text></g></g><g style="cursor: pointer; visibility: visible;"><image x="367" y="95" width="9" height="9" xlink:href="file:///C:/Users/lanz/AppData/Local/Programs/architector-pro/resources/app.asar/renderer/out/EditorUITDArchitector/examples/../src/images/expanded.gif" preserveAspectRatio="none"></image></g><g style="visibility: visible;"><rect x="362.5" y="90" width="30" height="30" fill="#ffffff" stroke="#2f5597" stroke-width="2" pointer-events="all"></rect></g><g style=""><g fill="#000000" font-family="Arial,Helvetica" text-anchor="middle" font-size="11px"><text x="377" y="108">1</text></g></g><g style="visibility: visible;"><rect x="182.5" y="230" width="515" height="450" fill="#ffffff" stroke="#2f5597" stroke-width="2" pointer-events="all"></rect></g><g style=""><g fill="#000000" font-family="Arial,Helvetica" font-size="12px"><text x="219.5" y="248">Student Board</text></g></g><g style="cursor: pointer; visibility: visible;"><image x="187" y="235" width="9" height="9" xlink:href="file:///C:/Users/lanz/AppData/Local/Programs/architector-pro/resources/app.asar/renderer/out/EditorUITDArchitector/examples/../src/images/expanded.gif" preserveAspectRatio="none"></image></g><g style="visibility: visible;"><rect x="182.5" y="230" width="30" height="30" fill="#ffffff" stroke="#2f5597" stroke-width="2" pointer-events="all"></rect></g><g style=""><g fill="#000000" font-family="Arial,Helvetica" text-anchor="middle" font-size="11px"><text x="197" y="248">2</text></g></g><g style="visibility: visible;"><rect x="292.5" y="455" width="225" height="30" fill="#ffffff" stroke="#2f5597" stroke-width="2" pointer-events="all"></rect></g><g style=""><g fill="#000000" font-family="Arial,Helvetica" font-size="12px"><text x="329.5" y="473">School Board</text></g></g><g style="cursor: pointer; visibility: visible;"><image x="297" y="460" width="9" height="9" xlink:href="file:///C:/Users/lanz/AppData/Local/Programs/architector-pro/resources/app.asar/renderer/out/EditorUITDArchitector/examples/../src/images/expanded.gif" preserveAspectRatio="none"></image></g><g style="visibility: visible;"><rect x="292.5" y="455" width="30" height="30" fill="#ffffff" stroke="#2f5597" stroke-width="2" pointer-events="all"></rect></g><g style=""><g fill="#000000" font-family="Arial,Helvetica" text-anchor="middle" font-size="11px"><text x="307" y="473">3</text></g></g><g style="visibility: visible;"><rect x="882.5" y="455" width="180" height="30" fill="#ffffff" stroke="#2f5597" stroke-width="2" pointer-events="all"></rect></g><g style=""><g fill="#000000" font-family="Arial,Helvetica" font-size="12px"><text x="919.5" y="473">Details</text></g></g><g style="cursor: pointer; visibility: visible;"><image x="887" y="460" width="9" height="9" xlink:href="file:///C:/Users/lanz/AppData/Local/Programs/architector-pro/resources/app.asar/renderer/out/EditorUITDArchitector/examples/../src/images/expanded.gif" preserveAspectRatio="none"></image></g><g style="visibility: visible;"><rect x="882.5" y="455" width="30" height="30" fill="#ffffff" stroke="#2f5597" stroke-width="2" pointer-events="all"></rect></g><g style=""><g fill="#000000" font-family="Arial,Helvetica" text-anchor="middle" font-size="11px"><text x="897" y="473">4</text></g></g><g transform="translate(0.5,0.5)" style="visibility: visible;"><path d="M 363 485 L 364.5 485 Q 366 485 366 495 L 366 510 Q 366 520 376 520 L 524 520 Q 534 520 534 530 L 534 560 Q 534 570 524 570 L 390 570 Q 380 570 380 580 L 380 670 Q 380 680 381.18 680 L 382.37 680" fill="none" stroke="white" stroke-miterlimit="10" pointer-events="stroke" visibility="hidden" stroke-width="9"></path><path d="M 363 485 L 364.5 485 Q 366 485 366 495 L 366 510 Q 366 520 376 520 L 524 520 Q 534 520 534 530 L 534 560 Q 534 570 524 570 L 390 570 Q 380 570 380 580 L 380 670 Q 380 680 381.18 680 L 382.37 680" fill="none" stroke="#000000" stroke-miterlimit="10" pointer-events="stroke"></path><path d="M 377.12 680 L 384.12 676.5 L 382.37 680 L 384.12 683.5 Z" fill="#000000" stroke="#000000" stroke-miterlimit="10" pointer-events="all"></path></g><g style=""><g fill="#446299" font-family="Arial,Helvetica" text-anchor="middle" font-size="11px"><rect fill="WHITE" stroke="black" x="506" y="543" width="147" height="12" stroke-width="1" transform="translate(0.5, 0.5)"></rect><text x="580" y="553.5">Add Comment / With Session</text></g></g><g transform="translate(0.5,0.5)" style="visibility: visible;"><path d="M 518 470 L 876.63 470" fill="none" stroke="white" stroke-miterlimit="10" pointer-events="stroke" visibility="hidden" stroke-width="9"></path><path d="M 518 470 L 876.63 470" fill="none" stroke="#000000" stroke-miterlimit="10" pointer-events="stroke"></path><path d="M 881.88 470 L 874.88 473.5 L 876.63 470 L 874.88 466.5 Z" fill="#000000" stroke="#000000" stroke-miterlimit="10" pointer-events="all"></path></g><g style=""><g fill="#446299" font-family="Arial,Helvetica" text-anchor="middle" font-size="11px"><rect fill="WHITE" stroke="black" x="646" y="463" width="109" height="12" stroke-width="1" transform="translate(0.5, 0.5)"></rect><text x="701" y="473.5">View Details / Default</text></g></g><g transform="translate(0.5,0.5)" style="visibility: visible;"><path d="M 905 455 L 905 450 Q 905 445 895 445 L 513 445 Q 503 445 503 446.82 L 503 448.63" fill="none" stroke="white" stroke-miterlimit="10" pointer-events="stroke" visibility="hidden" stroke-width="9"></path><path d="M 905 455 L 905 450 Q 905 445 895 445 L 513 445 Q 503 445 503 446.82 L 503 448.63" fill="none" stroke="#000000" stroke-miterlimit="10" pointer-events="stroke"></path><path d="M 503 453.88 L 499.5 446.88 L 503 448.63 L 506.5 446.88 Z" fill="#000000" stroke="#000000" stroke-miterlimit="10" pointer-events="all"></path></g><g style=""><g fill="#446299" font-family="Arial,Helvetica" text-anchor="middle" font-size="11px"><rect fill="WHITE" stroke="black" x="618" y="438" width="171" height="12" stroke-width="1" transform="translate(0.5, 0.5)"></rect><text x="704" y="448.5">Close Details / From School Board</text></g></g><g transform="translate(0.5,0.5)" style="visibility: visible;"><path d="M 939 455 L 939 409 Q 939 399 929 399 L 704.37 399" fill="none" stroke="white" stroke-miterlimit="10" pointer-events="stroke" visibility="hidden" stroke-width="9"></path><path d="M 939 455 L 939 409 Q 939 399 929 399 L 704.37 399" fill="none" stroke="#000000" stroke-miterlimit="10" pointer-events="stroke"></path><path d="M 699.12 399 L 706.12 395.5 L 704.37 399 L 706.12 402.5 Z" fill="#000000" stroke="#000000" stroke-miterlimit="10" pointer-events="all"></path></g><g style=""><g fill="#446299" font-family="Arial,Helvetica" text-anchor="middle" font-size="11px"><rect fill="WHITE" stroke="black" x="758" y="392" width="176" height="12" stroke-width="1" transform="translate(0.5, 0.5)"></rect><text x="846" y="402.5">Close Details / From Student Board</text></g></g><g transform="translate(0.5,0.5)" style="visibility: visible;"><path d="M 396 120 L 396 165 Q 396 175 386 175 L 381 175 Q 376 175 376 185 L 376 223.63" fill="none" stroke="white" stroke-miterlimit="10" pointer-events="stroke" visibility="hidden" stroke-width="9"></path><path d="M 396 120 L 396 165 Q 396 175 386 175 L 381 175 Q 376 175 376 185 L 376 223.63" fill="none" stroke="#000000" stroke-miterlimit="10" pointer-events="stroke"></path><path d="M 376 228.88 L 372.5 221.88 L 376 223.63 L 379.5 221.88 Z" fill="#000000" stroke="#000000" stroke-miterlimit="10" pointer-events="all"></path></g><g style=""><g fill="#446299" font-family="Arial,Helvetica" text-anchor="middle" font-size="11px"><rect fill="WHITE" stroke="black" x="329" y="168" width="114" height="12" stroke-width="1" transform="translate(0.5, 0.5)"></rect><text x="386" y="178.5">Sign In / From Student</text></g></g><g transform="translate(0.5,0.5)" style="visibility: visible;"><path d="M 453 120 L 453 278 Q 453 288 443 288 L 415 288 Q 405 288 405 298 L 405 448.63" fill="none" stroke="white" stroke-miterlimit="10" pointer-events="stroke" visibility="hidden" stroke-width="9"></path><path d="M 453 120 L 453 278 Q 453 288 443 288 L 415 288 Q 405 288 405 298 L 405 448.63" fill="none" stroke="#000000" stroke-miterlimit="10" pointer-events="stroke"></path><path d="M 405 453.88 L 401.5 446.88 L 405 448.63 L 408.5 446.88 Z" fill="#000000" stroke="#000000" stroke-miterlimit="10" pointer-events="all"></path></g><g style=""><g fill="#446299" font-family="Arial,Helvetica" text-anchor="middle" font-size="11px"><rect fill="WHITE" stroke="black" x="307" y="358" width="185" height="12" stroke-width="1" transform="translate(0.5, 0.5)"></rect><text x="400" y="368.5">View School Board / Without Session</text></g></g><g transform="translate(0.5,0.5)" style="visibility: visible;"><path d="M 461 455 L 461 298 Q 461 288 471 288 L 488 288 Q 498 288 498 278 L 498 126.37" fill="none" stroke="white" stroke-miterlimit="10" pointer-events="stroke" visibility="hidden" stroke-width="9"></path><path d="M 461 455 L 461 298 Q 461 288 471 288 L 488 288 Q 498 288 498 278 L 498 126.37" fill="none" stroke="#000000" stroke-miterlimit="10" pointer-events="stroke"></path><path d="M 498 121.12 L 501.5 128.12 L 498 126.37 L 494.5 128.12 Z" fill="#000000" stroke="#000000" stroke-miterlimit="10" pointer-events="all"></path></g><g style=""><g fill="#446299" font-family="Arial,Helvetica" text-anchor="middle" font-size="11px"><rect fill="WHITE" stroke="black" x="398" y="331" width="162" height="12" stroke-width="1" transform="translate(0.5, 0.5)"></rect><text x="480" y="341.5">Add Comment / Without Session</text></g></g><g transform="translate(0.5,0.5)" style="visibility: visible; cursor: move;"><path d="M 569 230 L 569 185 Q 569 175 579 175 L 698 175 Q 708 175 708 165 L 708 115 Q 708 105 698 105 L 549.37 105" fill="none" stroke="white" stroke-miterlimit="10" pointer-events="stroke" visibility="hidden" stroke-width="9"></path><path d="M 569 230 L 569 185 Q 569 175 579 175 L 698 175 Q 708 175 708 165 L 708 115 Q 708 105 698 105 L 549.37 105" fill="none" stroke="#000000" stroke-miterlimit="10" pointer-events="stroke"></path><path d="M 544.12 105 L 551.12 101.5 L 549.37 105 L 551.12 108.5 Z" fill="#000000" stroke="#000000" stroke-miterlimit="10" pointer-events="all"></path></g><g style="cursor: move;"><g fill="#446299" font-family="Arial,Helvetica" text-anchor="middle" font-size="11px"><rect fill="WHITE" stroke="black" x="685" y="147" width="46" height="12" stroke-width="1" transform="translate(0.5, 0.5)"></rect><text x="708" y="157.5">Sign Out</text></g></g><g transform="translate(0.5,0.5)" style="visibility: visible;"><path d="M 363 101 L 257 101 Q 247 101 247 111 L 247 223.63" fill="none" stroke="white" stroke-miterlimit="10" pointer-events="stroke" visibility="hidden" stroke-width="9"></path><path d="M 363 101 L 257 101 Q 247 101 247 111 L 247 223.63" fill="none" stroke="#000000" stroke-miterlimit="10" pointer-events="stroke"></path><path d="M 247 228.88 L 243.5 221.88 L 247 223.63 L 250.5 221.88 Z" fill="#000000" stroke="#000000" stroke-miterlimit="10" pointer-events="all"></path></g><g style=""><g fill="#446299" font-family="Arial,Helvetica" text-anchor="middle" font-size="11px"><rect fill="WHITE" stroke="black" x="226" y="133" width="145" height="12" stroke-width="1" transform="translate(0.5, 0.5)"></rect><text x="298" y="143.5">Sign In / With New Comment</text></g></g><g transform="translate(0.5,0.5)" style="visibility: visible;"><path d="M 374 90 L 373.5 90 Q 373 90 373 80 L 373 50 Q 373 40 383 40 L 443 40 Q 453 40 453 50 L 453 60 Q 453 70 443 70 L 395 70 Q 385 70 385 76.82 L 385 83.63" fill="none" stroke="white" stroke-miterlimit="10" pointer-events="stroke" visibility="hidden" stroke-width="9"></path><path d="M 374 90 L 373.5 90 Q 373 90 373 80 L 373 50 Q 373 40 383 40 L 443 40 Q 453 40 453 50 L 453 60 Q 453 70 443 70 L 395 70 Q 385 70 385 76.82 L 385 83.63" fill="none" stroke="#000000" stroke-miterlimit="10" pointer-events="stroke"></path><path d="M 385 88.88 L 381.5 81.88 L 385 83.63 L 388.5 81.88 Z" fill="#000000" stroke="#000000" stroke-miterlimit="10" pointer-events="all"></path></g><g style=""><g fill="#446299" font-family="Arial,Helvetica" text-anchor="middle" font-size="11px"><rect fill="WHITE" stroke="black" x="415" y="33" width="64" height="12" stroke-width="1" transform="translate(0.5, 0.5)"></rect><text x="447" y="43.5">Sign In / Fail</text></g></g><g transform="translate(0.5,0.5)" style="visibility: visible;"><path d="M 293 466 L 90 466 Q 80 466 80 456 L 80 123 Q 80 113 90 113 L 356.63 113" fill="none" stroke="white" stroke-miterlimit="10" pointer-events="stroke" visibility="hidden" stroke-width="9"></path><path d="M 293 466 L 90 466 Q 80 466 80 456 L 80 123 Q 80 113 90 113 L 356.63 113" fill="none" stroke="#000000" stroke-miterlimit="10" pointer-events="stroke"></path><path d="M 361.88 113 L 354.88 116.5 L 356.63 113 L 354.88 109.5 Z" fill="#000000" stroke="#000000" stroke-miterlimit="10" pointer-events="all"></path></g><g style=""><g fill="#446299" font-family="Arial,Helvetica" text-anchor="middle" font-size="11px"><rect fill="WHITE" stroke="black" x="16" y="247" width="129" height="12" stroke-width="1" transform="translate(0.5, 0.5)"></rect><text x="80" y="257.5">Enter as Student / Default</text></g></g><g transform="translate(0.5,0.5)" style="visibility: visible;"><path d="M 183 568 L 178 568 Q 173 568 173 574 L 173 577 Q 173 580 163 580 L 110 580 Q 100 580 100 590 L 100 614 Q 100 624 110 624 L 176.63 624" fill="none" stroke="white" stroke-miterlimit="10" pointer-events="stroke" visibility="hidden" stroke-width="9"></path><path d="M 183 568 L 178 568 Q 173 568 173 574 L 173 577 Q 173 580 163 580 L 110 580 Q 100 580 100 590 L 100 614 Q 100 624 110 624 L 176.63 624" fill="none" stroke="#000000" stroke-miterlimit="10" pointer-events="stroke"></path><path d="M 181.88 624 L 174.88 627.5 L 176.63 624 L 174.88 620.5 Z" fill="#000000" stroke="#000000" stroke-miterlimit="10" pointer-events="all"></path></g><g style=""><g fill="#446299" font-family="Arial,Helvetica" text-anchor="middle" font-size="11px"><rect fill="WHITE" stroke="black" x="33" y="589" width="134" height="12" stroke-width="1" transform="translate(0.5, 0.5)"></rect><text x="100" y="599.5">Publish Comment / Default</text></g></g></g><g></g><g></g></g></svg>